<svg width="64" height="64" viewBox="0 0 64 64" fill="none" xmlns="http://www.w3.org/2000/svg">
<rect width="64" height="64" rx="4" fill="#1F3251"/>
<path d="M24 24H26.6667V26.6667H24V24Z" fill="white"/>
<path d="M20 30.6667V20H30.6667V30.6667H20ZM22.6667 22.6667V28H28V22.6667H22.6667ZM33.3333 33.3333H37.3333V36H33.3333V33.3333Z" fill="white"/>
<path d="M37.3333 36H40V33.3333H44V37.3333H40V38.6667H41.3333V40H44V44H41.3333V41.3333H38.6667V44H33.3333V38.6667H36V41.3333H37.3333V36ZM40 24H37.3333V26.6667H40V24Z" fill="white"/>
<path d="M33.3333 20V30.6667H44V20H33.3333ZM41.3333 22.6667V28H36V22.6667H41.3333ZM24 37.3333H26.6667V40H24V37.3333Z" fill="white"/>
<path d="M20 44V33.3333H30.6667V44H20ZM22.6667 36V41.3333H28V36H22.6667Z" fill="white"/>
</svg>
